<?xml version="1.0" encoding="UTF-8"?><svg id="a" xmlns="http://www.w3.org/2000/svg" viewBox="0 0 512 512"><defs><style>.h{stroke-width:1.19px;}.h,.i{stroke:#000;stroke-miterlimit:10;}.i{fill:#fff;stroke-width:.9px;}</style></defs><path id="b" class="h" d="M305.06,179.47l20.67-64.51c-19.36-9.75-9.36-39.07-2.93-59.85l-23.56-3.23c-5.04,12.81-9.1,14.25-15.38,17.64-8.34,4.5-40.69,4.5-49.18,0-5.95-3.15-11.91-7.92-15.66-19.07l-24.17,4.66c8.46,23.29,9.17,47.71-10.26,59.85l22.28,64.51c24.08,11.52,75.58,11.76,98.2,0Z"/><path id="c" class="h" d="M207.27,184.86c-43.4-20.59-187.46,215.88-144.06,236.47,70.41,48.41,328.76,54.87,386.31,0,35.68-16.93-108.37-253.4-144.06-236.47-19.62,12.52-73.83,14.47-98.2,0Z"/><path class="i" d="M191.16,206.97c-47.1,46.03-99.84,138.73-120.88,201.4,11.15,10.18,20.07,13.79,35.22,16.86,8.71-64.79,41.92-149.3,85.66-218.26Z"/></svg>